<?xml version="1.0" encoding="UTF-8"?>
<svg version="1.1" xmlns="http://www.w3.org/2000/svg" width="577" height="433">
<path d="M0 0 C52.42253521 0 52.42253521 0 64 10 C69.28718123 16.85904592 70.36258546 22.37682169 70.375 30.8125 C70.39949219 31.67681641 70.42398438 32.54113281 70.44921875 33.43164062 C70.48300259 40.89223796 68.5704237 46.09136266 63.625 51.6875 C62.75875 52.450625 61.8925 53.21375 61 54 C60.51273438 54.4434375 60.02546875 54.886875 59.5234375 55.34375 C56.52820726 57.98569667 53.80230063 59.76984391 50 61 C50.721875 61.94875 51.44375 62.8975 52.1875 63.875 C54.17923717 66.65236683 55.73940023 69.40727264 57.1875 72.5 C59.37199835 77.0338645 61.9848737 81.10341702 64.8125 85.25 C78 104.61921796 78 104.61921796 78 109 C61.91386532 110.51755988 61.91386532 110.51755988 57.6796875 107.16015625 C56.14274728 104.50200555 55.0584959 101.88081485 54 99 C53.09220649 97.23440741 52.15383287 95.48424538 51.1875 93.75 C50.69894531 92.84121094 50.21039063 91.93242187 49.70703125 90.99609375 C47.38843835 86.92661834 44.84629235 83.01705057 42.24682617 79.12207031 C39.41463979 74.82878045 37.34470895 70.6894179 35 66 C28.4 65.67 21.8 65.34 15 65 C15 79.52 15 94.04 15 109 C10.05 109 5.1 109 0 109 C0 73.03 0 37.06 0 0 Z M15 14 C15 26.54 15 39.08 15 52 C33.53504819 52.60382679 33.53504819 52.60382679 50 46 C54.31689397 41.08353742 55.0883646 36.35243309 55 30 C54.40673406 24.75187827 52.83103194 20.72461439 49 17 C44.58386651 14.37353769 41.40365286 13.63664698 36.2890625 13.70703125 C35.16709473 13.71452393 34.04512695 13.7220166 32.88916016 13.72973633 C31.4819873 13.75704834 30.07481445 13.78436035 28.625 13.8125 C24.12875 13.874375 19.6325 13.93625 15 14 Z " fill="#B66E36" transform="translate(151,50)"/>
<path d="M0 0 C2.7578125 0.5234375 2.7578125 0.5234375 4.7578125 2.5234375 C5.2361973 5.53042764 5.32149824 7.59723268 3.70703125 10.25 C2.3828125 11.8984375 2.3828125 11.8984375 -0.2421875 14.5234375 C-0.9021875 14.5234375 -1.5621875 14.5234375 -2.2421875 14.5234375 C-2.6134375 15.3278125 -2.6134375 15.3278125 -2.9921875 16.1484375 C-6.050455 21.95914574 -9.91425067 27.25676217 -14.6171875 31.8359375 C-17.86046026 35.15643104 -20.50575146 38.78439542 -23.2421875 42.5234375 C-24.52281235 44.2309373 -25.83669189 45.91715681 -27.2421875 47.5234375 C-27.9021875 47.5234375 -28.5621875 47.5234375 -29.2421875 47.5234375 C-29.5103125 48.09578125 -29.7784375 48.668125 -30.0546875 49.2578125 C-31.28351386 51.60228384 -32.66740926 53.64748688 -34.2421875 55.7734375 C-34.7578125 56.47984375 -35.2734375 57.18625 -35.8046875 57.9140625 C-36.2790625 58.44515625 -36.7534375 58.97625 -37.2421875 59.5234375 C-37.9021875 59.5234375 -38.5621875 59.5234375 -39.2421875 59.5234375 C-39.60376953 60.61011719 -39.60376953 60.61011719 -39.97265625 61.71875 C-41.41475488 64.90467866 -43.15027359 66.86875161 -45.5546875 69.3984375 C-48.32463878 72.37324048 -50.89618407 75.28471388 -53.1796875 78.6484375 C-53.8603125 79.5971875 -54.5409375 80.5459375 -55.2421875 81.5234375 C-55.9021875 81.5234375 -56.5621875 81.5234375 -57.2421875 81.5234375 C-57.2421875 82.1834375 -57.2421875 82.8434375 -57.2421875 83.5234375 C-57.9021875 83.5234375 -58.5621875 83.5234375 -59.2421875 83.5234375 C-59.45617187 84.21050781 -59.67015625 84.89757812 -59.890625 85.60546875 C-61.64735604 89.39817998 -64.09888972 92.11262422 -66.8671875 95.2109375 C-67.95046457 96.44812903 -69.03248994 97.68641761 -70.11328125 98.92578125 C-70.64421387 99.53276855 -71.17514648 100.13975586 -71.72216797 100.76513672 C-77.55897564 107.24119278 -77.55897564 107.24119278 -82.2421875 114.5234375 C-82.9021875 114.5234375 -83.5621875 114.5234375 -84.2421875 114.5234375 C-84.62310547 115.38582031 -84.62310547 115.38582031 -85.01171875 116.265625 C-86.38142199 118.77892173 -87.97162178 120.56342449 -89.9296875 122.6484375 C-93.56906104 126.64383671 -96.61356141 130.8381339 -99.6484375 135.30078125 C-101.59020144 138.00878047 -103.82517049 140.23707006 -106.2421875 142.5234375 C-107.325 143.915625 -107.325 143.915625 -108.4296875 145.3359375 C-109.0278125 146.0578125 -109.6259375 146.7796875 -110.2421875 147.5234375 C-110.9021875 147.5234375 -111.5621875 147.5234375 -112.2421875 147.5234375 C-112.3453125 148.1009375 -112.4484375 148.6784375 -112.5546875 149.2734375 C-113.35115215 151.88004908 -114.43284027 153.4969686 -116.2421875 155.5234375 C-116.9021875 155.5234375 -117.5621875 155.5234375 -118.2421875 155.5234375 C-118.5309375 156.1215625 -118.8196875 156.7196875 -119.1171875 157.3359375 C-120.2421875 159.5234375 -120.2421875 159.5234375 -122.2421875 162.5234375 C-122.9021875 162.5234375 -123.5621875 162.5234375 -124.2421875 162.5234375 C-124.5515625 163.1421875 -124.8609375 163.7609375 -125.1796875 164.3984375 C-125.8671875 165.7734375 -126.5546875 167.1484375 -127.2421875 168.5234375 C-127.9021875 168.5234375 -128.5621875 168.5234375 -129.2421875 168.5234375 C-129.6753125 169.6990625 -129.6753125 169.6990625 -130.1171875 170.8984375 C-131.2421875 173.5234375 -131.2421875 173.5234375 -133.2421875 175.5234375 C-136.7421875 175.7734375 -136.7421875 175.7734375 -140.2421875 175.5234375 C-142.2421875 173.5234375 -142.2421875 173.5234375 -142.58984375 171.19921875 C-142.14306728 167.76054589 -140.9166053 166.33836088 -138.6796875 163.7109375 C-137.57753906 162.39802734 -137.57753906 162.39802734 -136.453125 161.05859375 C-134.0233973 158.27256323 -131.57163544 155.50727782 -129.109375 152.75 C-125.92015495 148.94695517 -123.05647213 144.89511045 -120.16015625 140.8671875 C-119.52722656 140.09375 -118.89429688 139.3203125 -118.2421875 138.5234375 C-117.5821875 138.5234375 -116.9221875 138.5234375 -116.2421875 138.5234375 C-115.9946875 137.9665625 -115.7471875 137.4096875 -115.4921875 136.8359375 C-114.01410819 134.10149078 -112.23268074 131.91202938 -110.2421875 129.5234375 C-109.44296875 128.55921875 -108.64375 127.595 -107.8203125 126.6015625 C-106.084485 124.52548091 -104.34333799 122.45390448 -102.6015625 120.3828125 C-97.20689763 113.99510145 -97.20689763 113.99510145 -92.2421875 107.2734375 C-91.5821875 106.3659375 -90.9221875 105.4584375 -90.2421875 104.5234375 C-89.5821875 104.5234375 -88.9221875 104.5234375 -88.2421875 104.5234375 C-87.8709375 103.688125 -87.8709375 103.688125 -87.4921875 102.8359375 C-86.01293932 100.09932837 -84.30751311 97.84692881 -82.2421875 95.5234375 C-81.5821875 95.5234375 -80.9221875 95.5234375 -80.2421875 95.5234375 C-80.0153125 94.8428125 -79.7884375 94.1621875 -79.5546875 93.4609375 C-77.50755443 88.87925873 -75.01540513 84.84501508 -70.95703125 81.8203125 C-66.68429797 78.20539571 -63.75844981 73.64056014 -60.52734375 69.10351562 C-60.01816406 68.40291016 -59.50898438 67.70230469 -58.984375 66.98046875 C-58.30157471 66.0210437 -58.30157471 66.0210437 -57.60498047 65.04223633 C-56.2421875 63.5234375 -56.2421875 63.5234375 -53.2421875 62.5234375 C-52.18775251 60.68629775 -52.18775251 60.68629775 -51.2421875 58.5234375 C-50.27546286 57.08385842 -49.27434442 55.66684934 -48.2421875 54.2734375 C-47.7265625 53.56703125 -47.2109375 52.860625 -46.6796875 52.1328125 C-46.2053125 51.60171875 -45.7309375 51.070625 -45.2421875 50.5234375 C-44.5821875 50.5234375 -43.9221875 50.5234375 -43.2421875 50.5234375 C-43.17515625 49.97300781 -43.108125 49.42257813 -43.0390625 48.85546875 C-41.91314544 45.56050558 -39.88925441 43.71792907 -37.4921875 41.2109375 C-34.50995532 38.03273007 -31.6880381 34.94577724 -29.2421875 31.3359375 C-28.5821875 30.4078125 -27.9221875 29.4796875 -27.2421875 28.5234375 C-26.5821875 28.5234375 -25.9221875 28.5234375 -25.2421875 28.5234375 C-24.85160156 27.66878906 -24.85160156 27.66878906 -24.453125 26.796875 C-22.03709594 22.26097529 -18.49773367 18.47513819 -15.2421875 14.5234375 C-14.24706818 13.26848891 -13.25229418 12.01326644 -12.2578125 10.7578125 C-11.2120276 9.47046785 -10.16515752 8.18400397 -9.1171875 6.8984375 C-8.38169678 5.95605225 -8.38169678 5.95605225 -7.63134766 4.99462891 C-5.18602076 2.04534705 -3.8478031 0.62121158 0 0 Z " fill="#CA8542" transform="translate(375.2421875,52.4765625)"/>
<path d="M0 0 C4.95 0 9.9 0 15 0 C15 32.01 15 64.02 15 97 C30.18 97 45.36 97 61 97 C61 101.29 61 105.58 61 110 C40.87 110 20.74 110 0 110 C0 73.7 0 37.4 0 0 Z " fill="#AE6631" transform="translate(332,136)"/>
<path d="M0 0 C6 0 6 0 7.58325195 1.43701172 C7.96441162 2.09459473 8.34557129 2.75217773 8.73828125 3.4296875 C9.37926758 4.49896484 9.37926758 4.49896484 10.03320312 5.58984375 C10.45537109 6.34394531 10.87753906 7.09804688 11.3125 7.875 C11.97475586 8.99455078 11.97475586 8.99455078 12.65039062 10.13671875 C14.17307817 12.7250544 15.65689009 15.31378018 17 18 C17.33 12.06 17.66 6.12 18 0 C19.65 0 21.3 0 23 0 C23 9.24 23 18.48 23 28 C21.02 28 19.04 28 17 28 C14.76953125 25.76953125 14.76953125 25.76953125 12.8125 22.8125 C11.83216797 21.36810547 11.83216797 21.36810547 10.83203125 19.89453125 C10.22746094 18.93933594 9.62289062 17.98414063 9 17 C8.42636719 16.11699219 7.85273438 15.23398437 7.26171875 14.32421875 C6 12 6 12 6 9 C5.34 9 4.68 9 4 9 C4 15.27 4 21.54 4 28 C2.68 28 1.36 28 0 28 C0 18.76 0 9.52 0 0 Z " fill="#BF9077" transform="translate(175,297)"/>
<path d="M0 0 C2.21875 0.09375 2.21875 0.09375 5 1 C6.73651835 3.16470096 8.1059404 5.13324824 9.5 7.5 C9.88728271 8.13131836 10.27456543 8.76263672 10.67358398 9.41308594 C11.80131299 11.26485616 12.90448518 13.12903152 14 15 C14.55816406 15.94359375 15.11632812 16.8871875 15.69140625 17.859375 C19 23.62820513 19 23.62820513 19 26 C13.06 26 7.12 26 1 26 C-3.49968613 18.12554928 -3.49968613 18.12554928 -4.6875 13.3125 C-4.91824219 12.40113281 -5.14898437 11.48976562 -5.38671875 10.55078125 C-5.58910156 9.70902344 -5.79148438 8.86726562 -6 8 C-6.33280775 6.66653538 -6.6659321 5.33314948 -7 4 C-6.030625 3.71125 -5.06125 3.4225 -4.0625 3.125 C-0.89335797 2.35785318 -0.89335797 2.35785318 0 0 Z " fill="#86481C" transform="translate(210,133)"/>
<path d="M0 0 C3.42607954 2.1788326 4.67688268 4.58597519 5.8125 8.42578125 C7.06130402 14.34645031 6.33762069 18.55849381 3.44140625 23.765625 C1.65937431 26.35979608 0.21345354 27.42238053 -2.75 28.5 C-8.43968722 29.04187497 -11.78316721 28.57470601 -16.75 25.5 C-20.13762031 22.11237969 -19.83384778 18.15774863 -19.9375 13.5625 C-19.88322964 9.51031338 -19.55438486 6.19898896 -17.75 2.5 C-12.72515703 -2.20065955 -6.19601788 -2.97986453 0 0 Z M-14.75 7.5 C-15.41054773 11.57717391 -15.5495193 15.44175031 -14.75 19.5 C-13.05400087 21.91533323 -13.05400087 21.91533323 -10.75 23.5 C-6.34796571 23.96337203 -4.4705836 23.98038907 -0.75 21.5 C1.08595389 17.16047263 0.48383767 11.72145784 0 7.125 C-0.65747623 5.34793626 -0.65747623 5.34793626 -2.5 4.25 C-7.74837644 2.50054119 -11.2108705 3.05080863 -14.75 7.5 Z " fill="#C99869" transform="translate(386.75,297.5)"/>
<path d="M0 0 C14 0 14 0 18 3 C19.07063516 5.97770403 19.25902887 8.85307485 19 12 C17.0625 15.0625 17.0625 15.0625 15 17 C15.495 17.598125 15.99 18.19625 16.5 18.8125 C18 21 18 21 18 24 C18.66 24 19.32 24 20 24 C20.33 25.32 20.66 26.64 21 28 C18.375 28.5625 18.375 28.5625 15 28 C13.18410837 25.80525328 11.80069569 23.54172052 10.39453125 21.06640625 C9.09934297 18.69451917 9.09934297 18.69451917 6 18 C6 21.3 6 24.6 6 28 C4.02 28 2.04 28 0 28 C0 18.76 0 9.52 0 0 Z M6 4 C6 6.97 6 9.94 6 13 C9.465 12.505 9.465 12.505 13 12 C13.33 10.35 13.66 8.7 14 7 C10.31435916 4.54420303 10.31435916 4.54420303 6 4 Z " fill="#B98962" transform="translate(414,297)"/>
<path d="M0 0 C3.26278654 0.0858628 4.64659824 0.65764205 7 2.9375 C10.7081454 8.61559765 13.54286336 14.68808936 16 21 C15.01 21 14.02 21 13 21 C12.67 21.99 12.34 22.98 12 24 C10.35 24.33 8.7 24.66 7 25 C7.560698 27.42969133 8.24622759 29.65660689 9.125 32 C10.0250469 35.0858751 9.90130758 36.05488226 9 39 C8.69707031 38.35933594 8.39414063 37.71867187 8.08203125 37.05859375 C6.07489774 32.91463503 4.18349319 29.0663751 1.25 25.5 C-1.86096661 21.43331324 -1.88990748 16.97418034 -2 12 C-2.66 12 -3.32 12 -4 12 C-4 11.34 -4 10.68 -4 10 C-4.66 10 -5.32 10 -6 10 C-6.33 8.35 -6.66 6.7 -7 5 C-6.21625 4.54625 -5.4325 4.0925 -4.625 3.625 C-1.96301969 2.11571258 -1.96301969 2.11571258 0 0 Z " fill="#AB672D" transform="translate(197,112)"/>
<path d="M0 0 C14 0 14 0 17.375 2.0625 C19.42783478 5.77339365 19.6724224 7.8160384 19 12 C17 14.9375 17 14.9375 15 17 C15.34933594 17.54269531 15.69867188 18.08539063 16.05859375 18.64453125 C16.51363281 19.35996094 16.96867187 20.07539063 17.4375 20.8125 C18.11619141 21.87404297 18.11619141 21.87404297 18.80859375 22.95703125 C20 25 20 25 21 28 C19.02 28 17.04 28 15 28 C14.69707031 27.36191406 14.39414062 26.72382813 14.08203125 26.06640625 C13.66308594 25.24011719 13.24414062 24.41382813 12.8125 23.5625 C12.40644531 22.73878906 12.00039063 21.91507812 11.58203125 21.06640625 C10.13366813 18.75309288 10.13366813 18.75309288 7.32421875 18.21484375 C6.55722656 18.14394531 5.79023438 18.07304687 5 18 C5 21.3 5 24.6 5 28 C3.35 28 1.7 28 0 28 C0 18.76 0 9.52 0 0 Z M5 4 C5 6.97 5 9.94 5 13 C9.7897321 13.23428313 9.7897321 13.23428313 14 11 C14.25030977 8.41619823 14.25030977 8.41619823 14 6 C10.62902617 4.50178941 8.79557881 4 5 4 Z " fill="#B97E46" transform="translate(297,297)"/>
<path d="M0 0 C11.67438049 0.36087729 19.91706192 2.58535667 29 10 C30.4375 12.3125 30.4375 12.3125 31 14 C28.69 14 26.38 14 24 14 C21.25341231 18.94385784 20.86971169 23.39760278 21 29 C20.01 29.495 20.01 29.495 19 30 C18.773125 28.783125 18.54625 27.56625 18.3125 26.3125 C17.07930713 21.37098249 14.55967132 18.6127779 10.24316406 15.89306641 C7.26694217 14.70814916 4.68399621 14.6731999 1.484375 14.5859375 C0.23398438 14.54726562 -1.01640625 14.50859375 -2.3046875 14.46875 C-3.60664063 14.4378125 -4.90859375 14.406875 -6.25 14.375 C-7.56742188 14.33632812 -8.88484375 14.29765625 -10.2421875 14.2578125 C-13.49465161 14.16353818 -16.74710996 14.0779325 -20 14 C-20 15.65 -20 17.3 -20 19 C-20.33 19 -20.66 19 -21 19 C-21 17.02 -21 15.04 -21 13 C-12.42 12.67 -3.84 12.34 5 12 C4.67 10.35 4.34 8.7 4 7 C4.66 7 5.32 7 6 7 C5.67 5.35 5.34 3.7 5 2 C2.525 1.505 2.525 1.505 0 1 C0 0.67 0 0.34 0 0 Z " fill="#CC8C53" transform="translate(186,50)"/>
<path d="M0 0 C2.71875 0.5625 2.71875 0.5625 4.71875 2.5625 C5.1971348 5.56949014 5.28243574 7.63629518 3.66796875 10.2890625 C2.34375 11.9375 2.34375 11.9375 -0.28125 14.5625 C-0.94125 14.5625 -1.60125 14.5625 -2.28125 14.5625 C-2.52875 15.09875 -2.77625 15.635 -3.03125 16.1875 C-6.33323361 22.46126886 -10.35799187 28.54314627 -16.28125 32.5625 C-16.28125 31.2425 -16.28125 29.9225 -16.28125 28.5625 C-15.29125 28.5625 -14.30125 28.5625 -13.28125 28.5625 C-13.61125 26.5825 -13.94125 24.6025 -14.28125 22.5625 C-13.29125 22.8925 -12.30125 23.2225 -11.28125 23.5625 C-11.61125 22.2425 -11.94125 20.9225 -12.28125 19.5625 C-11.29125 19.5625 -10.30125 19.5625 -9.28125 19.5625 C-9.61125 17.5825 -9.94125 15.6025 -10.28125 13.5625 C-10.94125 13.5625 -11.60125 13.5625 -12.28125 13.5625 C-12.28125 14.5525 -12.28125 15.5425 -12.28125 16.5625 C-12.94125 16.5625 -13.60125 16.5625 -14.28125 16.5625 C-14.28125 17.2225 -14.28125 17.8825 -14.28125 18.5625 C-14.94125 18.5625 -15.60125 18.5625 -16.28125 18.5625 C-16.61125 19.5525 -16.94125 20.5425 -17.28125 21.5625 C-19.84375 22.75 -19.84375 22.75 -22.28125 23.5625 C-18.34186612 18.04736257 -14.11049041 12.7746574 -9.78125 7.5625 C-9.23573486 6.87921631 -8.69021973 6.19593262 -8.12817383 5.49194336 C-4.08465057 0.70022581 -4.08465057 0.70022581 0 0 Z " fill="#CD915B" transform="translate(375.28125,52.4375)"/>
<path d="M0 0 C5.28 0 10.56 0 16 0 C16 1.32 16 2.64 16 4 C12.04 4 8.08 4 4 4 C4 6.31 4 8.62 4 11 C7.63 11 11.26 11 15 11 C15.33 12.65 15.66 14.3 16 16 C12.04 16 8.08 16 4 16 C4 18.64 4 21.28 4 24 C7.96 24 11.92 24 16 24 C16 25.32 16 26.64 16 28 C10.72 28 5.44 28 0 28 C0 18.76 0 9.52 0 0 Z " fill="#BB8250" transform="translate(259,297)"/>
<path d="M0 0 C-1.375 2 -1.375 2 -3 4 C-3.66 4 -4.32 4 -5 4 C-5.103125 4.5775 -5.20625 5.155 -5.3125 5.75 C-6.10896465 8.35661158 -7.19065277 9.9735311 -9 12 C-9.66 12 -10.32 12 -11 12 C-11.433125 12.8971875 -11.433125 12.8971875 -11.875 13.8125 C-13 16 -13 16 -15 19 C-15.66 19 -16.32 19 -17 19 C-17.4640625 19.928125 -17.4640625 19.928125 -17.9375 20.875 C-18.625 22.25 -19.3125 23.625 -20 25 C-20.66 25 -21.32 25 -22 25 C-22.28875 25.78375 -22.5775 26.5675 -22.875 27.375 C-24 30 -24 30 -26 32 C-29.5 32.25 -29.5 32.25 -33 32 C-35 30 -35 30 -35.3671875 27.69921875 C-34.88166908 24.13014185 -33.44316979 22.53903066 -31.125 19.8125 C-30.40570313 18.95269531 -29.68640625 18.09289062 -28.9453125 17.20703125 C-27.67409447 15.76478589 -26.35942395 14.35942395 -25 13 C-25 14.98 -25 16.96 -25 19 C-23.68 19 -22.36 19 -21 19 C-20.34 18.01 -19.68 17.02 -19 16 C-17.68 16 -16.36 16 -15 16 C-14.67 15.01 -14.34 14.02 -14 13 C-14.66 12.34 -15.32 11.68 -16 11 C-15.34 10.67 -14.68 10.34 -14 10 C-13.67 9.01 -13.34 8.02 -13 7 C-12.195625 6.71125 -11.39125 6.4225 -10.5625 6.125 C-7.76510941 5.23397424 -7.76510941 5.23397424 -6.8125 2.4375 C-6.544375 1.633125 -6.27625 0.82875 -6 0 C-3.50907189 -1.24546405 -2.58919267 -0.7767578 0 0 Z " fill="#CB8F59" transform="translate(268,196)"/>
<path d="M0 0 C0.33 0.66 0.66 1.32 1 2 C0.67 2.66 0.34 3.32 0 4 C0.99 3.67 1.98 3.34 3 3 C2.67 3.99 2.34 4.98 2 6 C1.01 6 0.02 6 -1 6 C-1.33 6.66 -1.66 7.32 -2 8 C-2.99 8 -3.98 8 -5 8 C-5.28875 8.5775 -5.5775 9.155 -5.875 9.75 C-6.6126883 11.2253766 -7.38282834 12.68506123 -8.1875 14.125 C-8.455625 14.74375 -8.72375 15.3625 -9 16 C-8.67 16.66 -8.34 17.32 -8 18 C-8.4375 20.125 -8.4375 20.125 -9 22 C-7.68 22 -6.36 22 -5 22 C-5.33 20.68 -5.66 19.36 -6 18 C-4.68 17.67 -3.36 17.34 -2 17 C-2 15.68 -2 14.36 -2 13 C-1.01 12.67 -0.02 12.34 1 12 C1.66 12.33 2.32 12.66 3 13 C3.12375 12.05125 3.2475 11.1025 3.375 10.125 C4 7 4 7 6 5 C8.125 5.375 8.125 5.375 10 6 C8.88266271 7.50571657 7.75589965 9.00444292 6.625 10.5 C5.99851562 11.3353125 5.37203125 12.170625 4.7265625 13.03125 C4.15679687 13.6809375 3.58703125 14.330625 3 15 C2.34 15 1.68 15 1 15 C0.731875 15.57234375 0.46375 16.1446875 0.1875 16.734375 C-1.04132636 19.07884634 -2.42522176 21.12404938 -4 23.25 C-4.515625 23.95640625 -5.03125 24.6628125 -5.5625 25.390625 C-6.036875 25.92171875 -6.51125 26.4528125 -7 27 C-7.66 27 -8.32 27 -9 27 C-9.433125 28.2065625 -9.433125 28.2065625 -9.875 29.4375 C-11 32 -11 32 -13 33 C-13.33 31.68 -13.66 30.36 -14 29 C-13.34 29 -12.68 29 -12 29 C-12 27.68 -12 26.36 -12 25 C-14.97 25.66 -17.94 26.32 -21 27 C-20.05016642 25.49460339 -19.08988109 23.99579653 -18.125 22.5 C-17.59132813 21.6646875 -17.05765625 20.829375 -16.5078125 19.96875 C-16.01023437 19.3190625 -15.51265625 18.669375 -15 18 C-14.34 18 -13.68 18 -13 18 C-12.93683594 17.45472656 -12.87367188 16.90945312 -12.80859375 16.34765625 C-11.64509732 12.96958206 -9.50868341 11.01704779 -7.0625 8.4375 C-4.46040853 5.67815984 -2.10485922 3.15728883 0 0 Z " fill="#CC935C" transform="translate(345,85)"/>
<path d="M0 0 C3.96 0 7.92 0 12 0 C12 0.99 12 1.98 12 3 C11.01 3.495 11.01 3.495 10 4 C10 10.6 10 17.2 10 24 C10.66 24.33 11.32 24.66 12 25 C12 25.99 12 26.98 12 28 C8.04 28 4.08 28 0 28 C0 27.01 0 26.02 0 25 C0.66 24.67 1.32 24.34 2 24 C2 17.4 2 10.8 2 4 C1.34 3.67 0.68 3.34 0 3 C0 2.01 0 1.02 0 0 Z " fill="#9B6130" transform="translate(335,297)"/>
<path d="M0 0 C0.33 0 0.66 0 1 0 C1 32.01 1 64.02 1 97 C2.65 97.33 4.3 97.66 6 98 C5.67 99.32 5.34 100.64 5 102 C2.69 102 0.38 102 -2 102 C-1.85789223 92.31244288 -1.71188111 82.62494744 -1.5625 72.9375 C-1.55147877 72.22261791 -1.54045753 71.50773582 -1.52910233 70.77119064 C-1.16409468 47.17658577 -0.69407865 23.58751528 0 0 Z " fill="#D4A987" transform="translate(346,136)"/>
<path d="M0 0 C-0.33 2.64 -0.66 5.28 -1 8 C-3.64 8.66 -6.28 9.32 -9 10 C-9 10.66 -9 11.32 -9 12 C-8.34 12.33 -7.68 12.66 -7 13 C-8.98 13.99 -8.98 13.99 -11 15 C-10.67 15.66 -10.34 16.32 -10 17 C-10.66 17 -11.32 17 -12 17 C-12 17.66 -12 18.32 -12 19 C-12.66 19 -13.32 19 -14 19 C-14.33 19.66 -14.66 20.32 -15 21 C-15.33 20.01 -15.66 19.02 -16 18 C-16.33 18.66 -16.66 19.32 -17 20 C-18.32 20 -19.64 20 -21 20 C-21.37470002 16.64583043 -21.14333802 15.2283408 -19.3203125 12.32421875 C-18.59585937 11.45410156 -17.87140625 10.58398438 -17.125 9.6875 C-16.40570313 8.80449219 -15.68640625 7.92148438 -14.9453125 7.01171875 C-14.30335938 6.34785156 -13.66140625 5.68398437 -13 5 C-12.34 5 -11.68 5 -11 5 C-10.67 4.01 -10.34 3.02 -10 2 C-6.58442859 0.19733731 -3.83134499 -0.218934 0 0 Z " fill="#CA8341" transform="translate(333,110)"/>
<path d="M0 0 C0.99 0 1.98 0 3 0 C3 1.65 3 3.3 3 5 C1.68 5 0.36 5 -1 5 C-2.03648269 6.96282895 -2.03648269 6.96282895 -2.6875 9 C-4.57130956 11.87056695 -6.77070025 12.15757398 -10 13 C-11.00217064 16.58327753 -11.00217064 16.58327753 -10 20 C-10.66 20 -11.32 20 -12 20 C-12 20.66 -12 21.32 -12 22 C-12.61875 22.103125 -13.2375 22.20625 -13.875 22.3125 C-16.36526484 22.87525373 -16.36526484 22.87525373 -18 26 C-19.65 25.67 -21.3 25.34 -23 25 C-22.77503257 19.37581437 -21.47912718 16.8279038 -17.5703125 13.06640625 C-16 12 -16 12 -13 12 C-12.773125 11.401875 -12.54625 10.80375 -12.3125 10.1875 C-10.63932418 7.39887363 -8.82982147 6.54966414 -6 5 C-5.278125 4.443125 -4.55625 3.88625 -3.8125 3.3125 C-2 2 -2 2 0 2 C0 1.34 0 0.68 0 0 Z " fill="#C9833F" transform="translate(265,190)"/>
<path d="M0 0 C7.26 0 14.52 0 22 0 C22 1.32 22 2.64 22 4 C19.03 4 16.06 4 13 4 C13 11.92 13 19.84 13 28 C11.68 28 10.36 28 9 28 C9 20.08 9 12.16 9 4 C6.03 4 3.06 4 0 4 C0 2.68 0 1.36 0 0 Z " fill="#985C38" transform="translate(217,297)"/>
<path d="M0 0 C3.63 0 7.26 0 11 0 C10.67 1.32 10.34 2.64 10 4 C9.34 4 8.68 4 8 4 C8 10.6 8 17.2 8 24 C8.99 24.33 9.98 24.66 11 25 C11 25.99 11 26.98 11 28 C7.37 28 3.74 28 0 28 C0 27.01 0 26.02 0 25 C0.66 24.67 1.32 24.34 2 24 C2 17.4 2 10.8 2 4 C1.34 3.67 0.68 3.34 0 3 C0 2.01 0 1.02 0 0 Z " fill="#9F5F3A" transform="translate(143,297)"/>
<path d="M0 0 C0.33 0.474375 0.66 0.94875 1 1.4375 C4.09813267 3.85791615 7.12026792 3.68198917 11 4 C11.33 3.01 11.66 2.02 12 1 C12.33 1 12.66 1 13 1 C12.938125 1.9075 12.87625 2.815 12.8125 3.75 C13.02133945 7.36988385 13.7618 8.29550834 16 11 C16 11.99 16 12.98 16 14 C16.66 14 17.32 14 18 14 C18.33 15.32 18.66 16.64 19 18 C16.375 18.5625 16.375 18.5625 13 18 C11.18410837 15.80525328 9.80069569 13.54172052 8.39453125 11.06640625 C7.09934297 8.69451917 7.09934297 8.69451917 4 8 C4 11.3 4 14.6 4 18 C2.35 18 0.7 18 -1 18 C-1.02717692 15.93757383 -1.0464758 13.87504297 -1.0625 11.8125 C-1.07410156 10.66394531 -1.08570313 9.51539063 -1.09765625 8.33203125 C-1.01192832 5.40699414 -0.67849023 2.83683709 0 0 Z " fill="#7A441E" transform="translate(416,307)"/>
<path d="M0 0 C0.66 0.33 1.32 0.66 2 1 C2.78545181 10.96651077 2.78545181 10.96651077 -0.375 15.125 C-4.5825155 18.13036822 -7.89303984 18.55056448 -13 18 C-16.31217963 16.65059348 -18.4792773 15.5207227 -21 13 C-21.23046875 10.94140625 -21.23046875 10.94140625 -21.1875 8.5625 C-21.18105469 7.78003906 -21.17460937 6.99757813 -21.16796875 6.19140625 C-21 4 -21 4 -20 1 C-19.34 1 -18.68 1 -18 1 C-17.9175 2.0725 -17.835 3.145 -17.75 4.25 C-17.25779935 7.94844013 -17.25779935 7.94844013 -15.375 10.4375 C-12.12644838 12.57470502 -9.81052445 12.35282634 -6 12 C-5.34 11.67 -4.68 11.34 -4 11 C-3.34786708 8.97536745 -3.34786708 8.97536745 -3 7 C-2.34 7 -1.68 7 -1 7 C-0.67 4.69 -0.34 2.38 0 0 Z " fill="#986C4D" transform="translate(389,308)"/>
<path d="M0 0 C0.99 0.33 1.98 0.66 3 1 C3 2.32 3 3.64 3 5 C3.99 5 4.98 5 6 5 C7.125 11.625 7.125 11.625 6 15 C3.9375 15.6875 3.9375 15.6875 2 16 C2.560698 18.42969133 3.24622759 20.65660689 4.125 23 C5.0250469 26.0858751 4.90130758 27.05488226 4 30 C3.67386719 29.33613281 3.34773437 28.67226562 3.01171875 27.98828125 C2.57472656 27.10527344 2.13773438 26.22226563 1.6875 25.3125 C1.23503906 24.39726562 0.78257812 23.48203125 0.31640625 22.5390625 C-0.99489548 19.89647102 -0.99489548 19.89647102 -2.875 17.1875 C-4.32516872 14.3677275 -3.78908712 12.99853105 -3 10 C-3.33 9.01 -3.66 8.02 -4 7 C-3.0625 4.8125 -3.0625 4.8125 -2 3 C-1.34 3 -0.68 3 0 3 C0 2.01 0 1.02 0 0 Z " fill="#9E5A24" transform="translate(202,121)"/>
<path d="M0 0 C-0.78246094 0.91523437 -1.56492187 1.83046875 -2.37109375 2.7734375 C-3.39333531 3.97386795 -4.41546493 5.17439374 -5.4375 6.375 C-5.95376953 6.97828125 -6.47003906 7.5815625 -7.00195312 8.203125 C-9.78632294 11.40448704 -9.78632294 11.40448704 -12 15 C-12.66 15 -13.32 15 -14 15 C-14 15.66 -14 16.32 -14 17 C-14.99 17.33 -15.98 17.66 -17 18 C-17.33 16.68 -17.66 15.36 -18 14 C-18.94875 14.495 -19.8975 14.99 -20.875 15.5 C-24 17 -24 17 -26 17 C-26.28875 17.61875 -26.5775 18.2375 -26.875 18.875 C-28 21 -28 21 -30 23 C-30.99 23 -31.98 23 -33 23 C-31.43306074 19.15387636 -28.94435097 16.87587769 -26 14 C-24.28876376 12.03300834 -22.64621483 10.02249251 -21 8 C-20.38125 8.350625 -19.7625 8.70125 -19.125 9.0625 C-18.42375 9.371875 -17.7225 9.68125 -17 10 C-16.34 9.67 -15.68 9.34 -15 9 C-14.67 9.66 -14.34 10.32 -14 11 C-13.01 10.67 -12.02 10.34 -11 10 C-11 8.68 -11 7.36 -11 6 C-9.68 5.34 -8.36 4.68 -7 4 C-7.33 3.01 -7.66 2.02 -8 1 C-3.375 -1.125 -3.375 -1.125 0 0 Z " fill="#C98A50" transform="translate(332,119)"/>
<path d="M0 0 C0.33 0 0.66 0 1 0 C1 14.52 1 29.04 1 44 C-3.95 44 -8.9 44 -14 44 C-14 33.77 -14 23.54 -14 13 C-13.67 13 -13.34 13 -13 13 C-12.93941406 13.67546875 -12.87882813 14.3509375 -12.81640625 15.046875 C-12.73261719 15.93890625 -12.64882812 16.8309375 -12.5625 17.75 C-12.48128906 18.63171875 -12.40007812 19.5134375 -12.31640625 20.421875 C-12.08090573 22.90142432 -12.08090573 22.90142432 -11.46875 24.84375 C-10.7552871 28.12567935 -10.89645332 31.40943176 -10.9375 34.75 C-10.94201172 35.44738281 -10.94652344 36.14476562 -10.95117188 36.86328125 C-10.9628998 38.57555803 -10.98083347 40.28779033 -11 42 C-9.906875 41.649375 -8.81375 41.29875 -7.6875 40.9375 C-4 40 -4 40 -1 41 C-1.495 39.515 -1.495 39.515 -2 38 C-1.505 37.505 -1.505 37.505 -1 37 C-0.92456531 35.28668954 -0.91689952 33.57031531 -0.9375 31.85546875 C-0.94523438 30.78490234 -0.95296875 29.71433594 -0.9609375 28.61132812 C-0.986489 26.37173915 -1.01251149 24.13215548 -1.0390625 21.89257812 C-1.09150491 14.53753054 -0.74065755 7.3181264 0 0 Z " fill="#BA804D" transform="translate(165,115)"/>
<path d="M0 0 C0.33 0 0.66 0 1 0 C1.02505615 0.6798999 1.0501123 1.3597998 1.07592773 2.06030273 C1.19305822 5.18617279 1.31524656 8.31182628 1.4375 11.4375 C1.47681641 12.50677734 1.51613281 13.57605469 1.55664062 14.67773438 C1.74733924 19.47453805 1.98244011 24.20991558 2.59765625 28.97265625 C3.00136279 32.26984036 2.73210817 34.74338089 2 38 C1.8700534 41.1047694 1.90562271 44.20569049 1.9375 47.3125 C1.94201172 48.14845703 1.94652344 48.98441406 1.95117188 49.84570312 C1.96289452 51.89716649 1.98082797 53.94859273 2 56 C2.66 56 3.32 56 4 56 C4 57.32 4 58.64 4 60 C20.335 60.495 20.335 60.495 37 61 C37 61.33 37 61.66 37 62 C24.79 62 12.58 62 0 62 C0 41.54 0 21.08 0 0 Z " fill="#B37C4E" transform="translate(332,184)"/>
<path d="M0 0 C1.65 0 3.3 0 5 0 C5.66 1.98 6.32 3.96 7 6 C6.34 6 5.68 6 5 6 C4.67 13.26 4.34 20.52 4 28 C2.68 28 1.36 28 0 28 C0 18.76 0 9.52 0 0 Z " fill="#9F6644" transform="translate(175,297)"/>
<path d="M0 0 C3 0.25 3 0.25 5 2.25 C5.375 5.125 5.375 5.125 5 8.25 C3 10.625 3 10.625 1 12.25 C0.67 11.59 0.34 10.93 0 10.25 C-1.65 10.58 -3.3 10.91 -5 11.25 C-4.67 12.24 -4.34 13.23 -4 14.25 C-4.66 14.25 -5.32 14.25 -6 14.25 C-6.66 13.26 -7.32 12.27 -8 11.25 C-8.66 10.92 -9.32 10.59 -10 10.25 C-9.21172254 8.95626218 -8.41924884 7.66508049 -7.625 6.375 C-7.18414062 5.65570313 -6.74328125 4.93640625 -6.2890625 4.1953125 C-4.31247635 1.21246431 -3.6710239 0.30591866 0 0 Z " fill="#C79869" transform="translate(375,52.75)"/>
<path d="M0 0 C0.66 0 1.32 0 2 0 C2 1.98 2 3.96 2 6 C0.35 6 -1.3 6 -3 6 C-3.0825 7.27875 -3.165 8.5575 -3.25 9.875 C-3.76695344 13.7762753 -3.76695344 13.7762753 -5.5625 15.5 C-9.09593558 16.2248073 -12.39409861 16.12019671 -16 16 C-16.268125 16.639375 -16.53625 17.27875 -16.8125 17.9375 C-18 20 -18 20 -21 21 C-21 20.01 -21 19.02 -21 18 C-20.01 18 -19.02 18 -18 18 C-17.773125 17.21625 -17.54625 16.4325 -17.3125 15.625 C-15.65026765 12.3005353 -14.33783856 12.33513542 -11 11 C-10.67 10.154375 -10.34 9.30875 -10 8.4375 C-9.67 7.633125 -9.34 6.82875 -9 6 C-6.54115028 5.20087384 -4.56909202 5 -2 5 C-2 4.34 -2 3.68 -2 3 C-1.34 2.67 -0.68 2.34 0 2 C0 1.34 0 0.68 0 0 Z " fill="#C98440" transform="translate(290,160)"/>
<path d="M0 0 C7.59 0 15.18 0 23 0 C23 0.33 23 0.66 23 1 C21.39318359 1.07347656 21.39318359 1.07347656 19.75390625 1.1484375 C18.35674361 1.22345294 16.9596095 1.2990013 15.5625 1.375 C14.85544922 1.4059375 14.14839844 1.436875 13.41992188 1.46875 C11.60760812 1.57280629 9.80182012 1.77919892 8 2 C7.67 2.66 7.34 3.32 7 4 C5.35 4 3.7 4 2 4 C2.00523682 4.89195068 2.01047363 5.78390137 2.01586914 6.70288086 C2.0330397 10.0520087 2.04551226 13.40108889 2.05493164 16.75024414 C2.05992148 18.192309 2.06671573 19.63436891 2.07543945 21.07641602 C2.1208459 28.78215673 2.08531842 36.35149621 1 44 C0.67 44 0.34 44 0 44 C0 29.48 0 14.96 0 0 Z " fill="#925536" transform="translate(151,50)"/>
<path d="M0 0 C4.62 0 9.24 0 14 0 C14 0.66 14 1.32 14 2 C9.93274566 4.7115029 6.8452389 4.57867488 2 5 C2 10.28 2 15.56 2 21 C2.66 21 3.32 21 4 21 C4 23.31 4 25.62 4 28 C2.68 28 1.36 28 0 28 C0 18.76 0 9.52 0 0 Z " fill="#AB7A4F" transform="translate(297,297)"/>
<path d="M0 0 C3.96 0 7.92 0 12 0 C12 0.99 12 1.98 12 3 C11.01 3.495 11.01 3.495 10 4 C10 10.93 10 17.86 10 25 C9.34 25 8.68 25 8 25 C8 18.73 8 12.46 8 6 C7.01 6.33 6.02 6.66 5 7 C4.67 12.94 4.34 18.88 4 25 C3.34 24.67 2.68 24.34 2 24 C2 17.4 2 10.8 2 4 C1.34 3.67 0.68 3.34 0 3 C0 2.01 0 1.02 0 0 Z " fill="#D9B07F" transform="translate(335,297)"/>
<path d="M0 0 C1.32 0 2.64 0 4 0 C4 8.91 4 17.82 4 27 C3.67 27 3.34 27 3 27 C2.67 25.02 2.34 23.04 2 21 C1.01 21 0.02 21 -1 21 C-0.67 14.07 -0.34 7.14 0 0 Z " fill="#AA7149" transform="translate(193,297)"/>
<path d="M0 0 C2.015625 3.734375 2.015625 3.734375 1.875 6.125 C1 8 1 8 -0.875 9.25 C-3 10 -3 10 -6 10 C-5.938125 10.763125 -5.87625 11.52625 -5.8125 12.3125 C-6 15 -6 15 -7.375 16.625 C-7.91125 17.07875 -8.4475 17.5325 -9 18 C-9.66 18.99 -10.32 19.98 -11 21 C-11 20.34 -11 19.68 -11 19 C-12.175625 20.2375 -12.175625 20.2375 -13.375 21.5 C-16 24 -16 24 -18 24 C-16.25731793 20.03935893 -13.85325271 16.25563451 -11 13 C-10.34 13 -9.68 13 -9 13 C-8.74476563 12.43796875 -8.48953125 11.8759375 -8.2265625 11.296875 C-6.84307219 8.70613518 -5.20061417 6.54892155 -3.375 4.25 C-2.74335938 3.45078125 -2.11171875 2.6515625 -1.4609375 1.828125 C-0.97882813 1.22484375 -0.49671875 0.6215625 0 0 Z " fill="#CE9B6D" transform="translate(268,178)"/>
<path d="M0 0 C5.57142857 5.14285714 5.57142857 5.14285714 6 9 C6.66 9 7.32 9 8 9 C8.33 10.32 8.66 11.64 9 13 C6.375 13.5625 6.375 13.5625 3 13 C1.18410837 10.80525328 -0.19930431 8.54172052 -1.60546875 6.06640625 C-2.90065703 3.69451917 -2.90065703 3.69451917 -6 3 C-6 6.3 -6 9.6 -6 13 C-6.33 13 -6.66 13 -7 13 C-7 9.37 -7 5.74 -7 2 C-4.69 2 -2.38 2 0 2 C0 1.34 0 0.68 0 0 Z " fill="#7A5033" transform="translate(426,312)"/>
<path d="M0 0 C2.3125 0.1875 2.3125 0.1875 5 1 C7.29091283 3.7648948 7.95474962 5.54749617 8.3125 9.125 C8 12 8 12 6 15 C5.34 15 4.68 15 4 15 C2.99175142 12.58020341 2.06397182 10.32899792 1.5625 7.75 C1.376875 7.1725 1.19125 6.595 1 6 C0.01 5.67 -0.98 5.34 -2 5 C-2 4.34 -2 3.68 -2 3 C-1.34 2.67 -0.68 2.34 0 2 C0 1.34 0 0.68 0 0 Z " fill="#A37857" transform="translate(425,297)"/>
<path d="M0 0 C0.66 0 1.32 0 2 0 C2.0825 1.0725 2.165 2.145 2.25 3.25 C3.07120695 7.35603475 3.61915374 8.62427019 7 11 C10.14481791 11.80315654 10.14481791 11.80315654 13 12 C13 12.33 13 12.66 13 13 C12.195625 13.12375 11.39125 13.2475 10.5625 13.375 C9.716875 13.58125 8.87125 13.7875 8 14 C7.67 14.66 7.34 15.32 7 16 C3.3003847 15.50005199 1.31452037 14.98539583 -1 12 C-1.328125 9.84375 -1.328125 9.84375 -1.25 7.5 C-1.23453125 6.7265625 -1.2190625 5.953125 -1.203125 5.15625 C-1 3 -1 3 0 0 Z " fill="#A0714F" transform="translate(369,309)"/>
<path d="M0 0 C4.95 0 9.9 0 15 0 C15 1.32 15 2.64 15 4 C11.04 4 7.08 4 3 4 C3 5.65 3 7.3 3 9 C2.01 8.34 1.02 7.68 0 7 C0 4.69 0 2.38 0 0 Z " fill="#A5673E" transform="translate(260,297)"/>
<path d="M0 0 C0 0.66 0 1.32 0 2 C4.455 2.99 4.455 2.99 9 4 C9 4.33 9 4.66 9 5 C5.37 5 1.74 5 -2 5 C-1.835 5.7425 -1.67 6.485 -1.5 7.25 C-0.79945413 12.50409401 -0.92292501 17.70751749 -1 23 C-1.33 23 -1.66 23 -2 23 C-2.07347656 21.84371094 -2.07347656 21.84371094 -2.1484375 20.6640625 C-2.22320312 19.66117188 -2.29796875 18.65828125 -2.375 17.625 C-2.44460937 16.62726563 -2.51421875 15.62953125 -2.5859375 14.6015625 C-2.76363964 11.84491121 -2.76363964 11.84491121 -5 10 C-5.4140625 7.8359375 -5.4140625 7.8359375 -5.625 5.375 C-5.69976562 4.55773438 -5.77453125 3.74046875 -5.8515625 2.8984375 C-5.90054688 2.27195313 -5.94953125 1.64546875 -6 1 C-4 0 -4 0 0 0 Z " fill="#A2643E" transform="translate(167,58)"/>
<path d="M0 0 C3.63 0 7.26 0 11 0 C10.67 1.32 10.34 2.64 10 4 C9.34 4 8.68 4 8 4 C8 7.63 8 11.26 8 15 C5 12 5 12 4.70703125 9.73828125 C4.74183594 8.93777344 4.77664062 8.13726562 4.8125 7.3125 C4.85310547 6.10013672 4.85310547 6.10013672 4.89453125 4.86328125 C4.94673828 3.94095703 4.94673828 3.94095703 5 3 C3.35 3 1.7 3 0 3 C0 2.01 0 1.02 0 0 Z " fill="#93583A" transform="translate(143,297)"/>
<path d="M0 0 C0.33 0 0.66 0 1 0 C1 9.24 1 18.48 1 28 C-0.98 28 -2.96 28 -5 28 C-5.66 25.69 -6.32 23.38 -7 21 C-5.02 20.67 -3.04 20.34 -1 20 C-0.67 13.4 -0.34 6.8 0 0 Z " fill="#C58E61" transform="translate(197,297)"/>
<path d="M0 0 C-0.33 0.66 -0.66 1.32 -1 2 C-1.99 2.33 -2.98 2.66 -4 3 C-3.67 3.66 -3.34 4.32 -3 5 C-3.66 5 -4.32 5 -5 5 C-5 5.66 -5 6.32 -5 7 C-5.66 7 -6.32 7 -7 7 C-7.33 7.66 -7.66 8.32 -8 9 C-8.33 8.01 -8.66 7.02 -9 6 C-9.33 6.66 -9.66 7.32 -10 8 C-11.32 8 -12.64 8 -14 8 C-13.40112592 4.64630514 -12.27617653 2.53881228 -10 0 C-6.30581799 -1.231394 -3.7943739 -0.64432764 0 0 Z " fill="#C9813D" transform="translate(326,122)"/>
<path d="M0 0 C0.33 0.99 0.66 1.98 1 3 C1.66 2.67 2.32 2.34 3 2 C5.04055005 1.92934383 7.08334257 1.91578024 9.125 1.9375 C10.22070312 1.94652344 11.31640625 1.95554687 12.4453125 1.96484375 C13.28835938 1.97644531 14.13140625 1.98804688 15 2 C15 3.32 15 4.64 15 6 C10.05 6 5.1 6 0 6 C0 4.02 0 2.04 0 0 Z " fill="#A86D3B" transform="translate(260,319)"/>
<path d="M0 0 C0.33 0 0.66 0 1 0 C1.33 6.6 1.66 13.2 2 20 C3.65 20 5.3 20 7 20 C7.33 21.32 7.66 22.64 8 24 C4.37 24 0.74 24 -3 24 C-3 23.01 -3 22.02 -3 21 C-2.34 20.67 -1.68 20.34 -1 20 C-0.67 13.4 -0.34 6.8 0 0 Z " fill="#C69271" transform="translate(146,301)"/>
<path d="M0 0 C3.63 0 7.26 0 11 0 C11.33 1.65 11.66 3.3 12 5 C8.04 5 4.08 5 0 5 C0 3.35 0 1.7 0 0 Z " fill="#C79D73" transform="translate(263,308)"/>
<path d="M0 0 C2.42130331 3.63195496 2.21022785 5.38349348 2.125 9.6875 C2.10695312 10.86699219 2.08890625 12.04648437 2.0703125 13.26171875 C2.03550781 14.61716797 2.03550781 14.61716797 2 16 C0.68 16 -0.64 16 -2 16 C-2.05423638 14.08364783 -2.09289963 12.16685075 -2.125 10.25 C-2.14820313 9.18265625 -2.17140625 8.1153125 -2.1953125 7.015625 C-2.00487687 4.07529894 -1.52670104 2.47638122 0 0 Z " fill="#C1793D" transform="translate(228,309)"/>
<path d="M0 0 C6.2390489 5.3477562 9.05550599 12.47070024 12 20 C11.01 20 10.02 20 9 20 C8.67 20.99 8.34 21.98 8 23 C6.89131683 19.67395049 6.45822468 16.46941546 6 13 C5.01 13 4.02 13 3 13 C2.87625 11.96875 2.7525 10.9375 2.625 9.875 C2.06110186 6.37883154 1.21317941 3.31602373 0 0 Z " fill="#AF815E" transform="translate(201,113)"/>
<path d="M0 0 C5 2 5 2 5.8125 3.6875 C6.5060241 12.24096386 6.5060241 12.24096386 4 16 C3.67 13.03 3.34 10.06 3 7 C2.34 8.98 1.68 10.96 1 13 C0.67 13 0.34 13 0 13 C0 8.71 0 4.42 0 0 Z " fill="#B78762" transform="translate(387,302)"/>
<path d="M0 0 C0.66 0 1.32 0 2 0 C2 2.64 2 5.28 2 8 C1.01 7.67 0.02 7.34 -1 7 C-1.33 8.98 -1.66 10.96 -2 13 C-2.66 13 -3.32 13 -4 13 C-7.125 6.375 -7.125 6.375 -6 3 C-5.195625 2.87625 -4.39125 2.7525 -3.5625 2.625 C-2.716875 2.41875 -1.87125 2.2125 -1 2 C-0.67 1.34 -0.34 0.68 0 0 Z " fill="#924A15" transform="translate(210,133)"/>
<path d="M0 0 C0.99 0.33 1.98 0.66 3 1 C3.66 2.65 4.32 4.3 5 6 C-0.61 6 -6.22 6 -12 6 C-12 5.34 -12 4.68 -12 4 C-11.38511719 3.96261719 -10.77023438 3.92523438 -10.13671875 3.88671875 C-9.32847656 3.82097656 -8.52023438 3.75523437 -7.6875 3.6875 C-6.88699219 3.62949219 -6.08648437 3.57148438 -5.26171875 3.51171875 C-2.63727666 2.91793306 -1.69179328 2.04219706 0 0 Z " fill="#784724" transform="translate(224,153)"/>
<path d="M0 0 C0.33 0.99 0.66 1.98 1 3 C1.66 3.33 2.32 3.66 3 4 C3 4.66 3 5.32 3 6 C-0.75 7.125 -0.75 7.125 -3 6 C-3 6.99 -3 7.98 -3 9 C-3.66 9 -4.32 9 -5 9 C-5 9.66 -5 10.32 -5 11 C-5.66 11 -6.32 11 -7 11 C-7.33 11.99 -7.66 12.98 -8 14 C-10.5625 15.1875 -10.5625 15.1875 -13 16 C-8.93866463 10.40636594 -4.6208599 5.14036486 0 0 Z " fill="#D09660" transform="translate(366,60)"/>
<path d="M0 0 C-5.445 6.435 -5.445 6.435 -11 13 C-11.66 12.67 -12.32 12.34 -13 12 C-13 11.34 -13 10.68 -13 10 C-12.34 10 -11.68 10 -11 10 C-11 8.68 -11 7.36 -11 6 C-9.68 5.34 -8.36 4.68 -7 4 C-7.33 3.01 -7.66 2.02 -8 1 C-3.375 -1.125 -3.375 -1.125 0 0 Z " fill="#D19F68" transform="translate(332,119)"/>
<path d="M0 0 C0.94875 0.185625 1.8975 0.37125 2.875 0.5625 C5.89868793 1.28686632 5.89868793 1.28686632 8 0 C8 1.32 8 2.64 8 4 C7.01 4.33 6.02 4.66 5 5 C4.01 5.66 3.02 6.32 2 7 C1.34 7 0.68 7 0 7 C0.33 7.99 0.66 8.98 1 10 C0.34 10 -0.32 10 -1 10 C-1.66 9.01 -2.32 8.02 -3 7 C-3.66 6.67 -4.32 6.34 -5 6 C-4.34 5.01 -3.68 4.02 -3 3 C-2.34 3 -1.68 3 -1 3 C-0.67 2.01 -0.34 1.02 0 0 Z " fill="#CA823D" transform="translate(370,57)"/>
<path d="M0 0 C1.32 0 2.64 0 4 0 C4.66 1.98 5.32 3.96 6 6 C5.34 6 4.68 6 4 6 C3.67 8.64 3.34 11.28 3 14 C2.67 13.34 2.34 12.68 2 12 C1.34 12 0.68 12 0 12 C0 8.04 0 4.08 0 0 Z " fill="#9B5734" transform="translate(176,297)"/>
<path d="M0 0 C3.27213285 0.05181808 6.54161377 0.14687405 9.8125 0.25 C10.74126953 0.26417969 11.67003906 0.27835937 12.62695312 0.29296875 C13.51962891 0.32519531 14.41230469 0.35742188 15.33203125 0.390625 C16.15421143 0.41157227 16.9763916 0.43251953 17.82348633 0.45410156 C20 1 20 1 21.85424805 2.85058594 C22.23234619 3.55989258 22.61044434 4.26919922 23 5 C22.67 5.99 22.34 6.98 22 8 C21.34 6.68 20.68 5.36 20 4 C13.4 3.67 6.8 3.34 0 3 C0 2.01 0 1.02 0 0 Z " fill="#BC885B" transform="translate(166,112)"/>
<path d="M0 0 C0.99 0 1.98 0 3 0 C3 1.65 3 3.3 3 5 C1.68 5 0.36 5 -1 5 C-1.33 5.66 -1.66 6.32 -2 7 C-2.66666667 8.33333333 -3.33333333 9.66666667 -4 11 C-4.99 11 -5.98 11 -7 11 C-7.33 10.34 -7.66 9.68 -8 9 C-6.5273138 5.72736399 -5.57304568 4.27985952 -2.3125 2.6875 C-1.549375 2.460625 -0.78625 2.23375 0 2 C0 1.34 0 0.68 0 0 Z " fill="#CA823E" transform="translate(265,190)"/>
<path d="M0 0 C0.99 0 1.98 0 3 0 C2.67 1.32 2.34 2.64 2 4 C2.66 4.33 3.32 4.66 4 5 C3.34 5 2.68 5 2 5 C2.33 5.66 2.66 6.32 3 7 C5.02463255 7.65213292 5.02463255 7.65213292 7 8 C7 8.66 7 9.32 7 10 C3.625 10.125 3.625 10.125 0 10 C-2 8 -2 8 -2.25 5.5625 C-2 3 -2 3 0 0 Z " fill="#C59464" transform="translate(235,218)"/>
<path d="M0 0 C0.33 0.474375 0.66 0.94875 1 1.4375 C4.09813267 3.85791615 7.12026792 3.68198917 11 4 C11.33 3.01 11.66 2.02 12 1 C12.33 1 12.66 1 13 1 C13 2.65 13 4.3 13 6 C10.15785932 6.94738023 8.32391609 7.13460559 5.375 7.125 C4.18003906 7.12886719 4.18003906 7.12886719 2.9609375 7.1328125 C1 7 1 7 0 6 C-0.04080783 4.00041636 -0.04254356 1.99954746 0 0 Z " fill="#884A1C" transform="translate(416,307)"/>
<path d="M0 0 C2.9244745 2.63202705 5.02154932 5.60837026 7 9 C6.67 9.99 6.34 10.98 6 12 C4.35 12 2.7 12 1 12 C1 11.01 1 10.02 1 9 C0.34 9 -0.32 9 -1 9 C-0.7525 8.1028125 -0.7525 8.1028125 -0.5 7.1875 C0.1114124 4.88655664 0.1114124 4.88655664 0 2 C0 1.34 0 0.68 0 0 Z " fill="#B2775A" transform="translate(180,297)"/>
<path d="M0 0 C0 4.50098803 -1.68799566 8.35999457 -4.5 11.875 C-6 13 -6 13 -9 14 C-10.20882096 16.00016466 -10.20882096 16.00016466 -11 18 C-11.99 17.67 -12.98 17.34 -14 17 C-13.24074219 16.10796875 -12.48148437 15.2159375 -11.69921875 14.296875 C-10.69525246 13.11463432 -9.69134954 11.93233982 -8.6875 10.75 C-8.18798828 10.16347656 -7.68847656 9.57695312 -7.17382812 8.97265625 C-4.68918088 6.04373434 -2.2565687 3.11144626 0 0 Z " fill="#D2A375" transform="translate(283,160)"/>
<path d="M0 0 C0 0.66 0 1.32 0 2 C-3.03525486 4.02350324 -4.19426202 4.32124018 -7.6875 4.625 C-8.49574219 4.69976562 -9.30398438 4.77453125 -10.13671875 4.8515625 C-11.05904297 4.92503906 -11.05904297 4.92503906 -12 5 C-12.33 6.32 -12.66 7.64 -13 9 C-13.04241723 6.66705225 -13.04092937 4.33297433 -13 2 C-10.20661992 -0.79338008 -3.77618484 -0.11442984 0 0 Z " fill="#B97D4F" transform="translate(311,297)"/>
<path d="M0 0 C1.54586876 3.09173752 1.29359521 5.59429552 1 9 C-1 11.4375 -1 11.4375 -3 13 C-2.835 12.505 -2.67 12.01 -2.5 11.5 C-1.79311182 7.96555911 -1.93994845 4.60309299 -2 1 C-2.66 0.67 -3.32 0.34 -4 0 C-4.33 0.99 -4.66 1.98 -5 3 C-6.32 2.34 -7.64 1.68 -9 1 C-8 -1 -8 -1 -6.1875 -1.75 C-3.46105159 -2.0615941 -2.27148497 -1.48821429 0 0 Z " fill="#C99B75" transform="translate(315,300)"/>
<path d="M0 0 C0.33 0.66 0.66 1.32 1 2 C3.02463255 2.65213292 3.02463255 2.65213292 5 3 C2.02911382 6.99926986 -1.12948725 9.92118304 -5 13 C-5.40121283 9.48938777 -5.20702695 8.28048812 -3.0625 5.375 C-2.381875 4.59125 -1.70125 3.8075 -1 3 C-0.67 2.01 -0.34 1.02 0 0 Z " fill="#CC9663" transform="translate(273,182)"/>
<path d="M0 0 C-0.33 0.99 -0.66 1.98 -1 3 C-5.45824484 3.33452406 -9.91660986 3.66741848 -14.375 4 C-16.28152344 4.14308594 -16.28152344 4.14308594 -18.2265625 4.2890625 C-20.04414063 4.42441406 -20.04414063 4.42441406 -21.8984375 4.5625 C-23.01911621 4.64628906 -24.13979492 4.73007813 -25.29443359 4.81640625 C-26.86054755 4.92267928 -28.43028446 5 -30 5 C-30 4.34 -30 3.68 -30 3 C-28.80503906 2.95101562 -27.61007813 2.90203125 -26.37890625 2.8515625 C-17.61586257 2.45294942 -8.55916532 0 0 0 Z " fill="#B87B47" transform="translate(196,99)"/>
<path d="M0 0 C1.32 0 2.64 0 4 0 C4 2.97 4 5.94 4 9 C7.465 8.505 7.465 8.505 11 8 C11 8.66 11 9.32 11 10 C3.59743291 10.48541424 3.59743291 10.48541424 1 8.375 C-0.23318878 5.44617664 -0.2145758 3.14711179 0 0 Z " fill="#B27F53" transform="translate(416,301)"/>
<path d="M0 0 C0.33 0.99 0.66 1.98 1 3 C1.433125 2.505 1.86625 2.01 2.3125 1.5 C4 0 4 0 7 0 C6.690625 0.598125 6.38125 1.19625 6.0625 1.8125 C4.89790296 4.08956772 4.89790296 4.08956772 4 7 C3.01 7.495 3.01 7.495 2 8 C1.67 8.66 1.34 9.32 1 10 C0.01 9.34 -0.98 8.68 -2 8 C-2 7.01 -2 6.02 -2 5 C-1.34 5 -0.68 5 0 5 C0 3.35 0 1.7 0 0 Z " fill="#CA813B" transform="translate(300,144)"/>
<path d="M0 0 C2.02558881 3.34939881 2.21738987 5.86962551 2.125 9.75 C2.10695312 10.73484375 2.08890625 11.7196875 2.0703125 12.734375 C2.03550781 13.85585937 2.03550781 13.85585937 2 15 C1.34 15 0.68 15 0 15 C-0.33 15.99 -0.66 16.98 -1 18 C-2.03091649 13.23201121 -1.99049579 9.57926098 -1 4.8125 C-0.814375 3.91144531 -0.62875 3.01039062 -0.4375 2.08203125 C-0.293125 1.39496094 -0.14875 0.70789063 0 0 Z " fill="#9F5E28" transform="translate(218,76)"/>
<path d="M0 0 C1.32 0 2.64 0 4 0 C4 3.96 4 7.92 4 12 C0.37 12 -3.26 12 -7 12 C-7 11.67 -7 11.34 -7 11 C-4.36 10.67 -1.72 10.34 1 10 C0.67 6.7 0.34 3.4 0 0 Z " fill="#70401F" transform="translate(389,233)"/>
<path d="M0 0 C0 1.32 0 2.64 0 4 C-1.11375 4.0825 -2.2275 4.165 -3.375 4.25 C-4.57125 4.4975 -5.7675 4.745 -7 5 C-8.30065921 6.93383287 -8.30065921 6.93383287 -9 9 C-9.99 9.33 -10.98 9.66 -12 10 C-11.690625 9.236875 -11.38125 8.47375 -11.0625 7.6875 C-10.32106407 5.81210323 -9.63771783 3.91315348 -9 2 C-5.99208089 -0.04108797 -3.57804656 -0.19878036 0 0 Z " fill="#CC823C" transform="translate(333,110)"/>
<path d="M0 0 C0.66 0.33 1.32 0.66 2 1 C2 4.63 2 8.26 2 12 C0.02 12.99 0.02 12.99 -2 14 C-2.21192221 8.80790596 -1.5912689 4.873261 0 0 Z " fill="#8F5327" transform="translate(389,308)"/>
<path d="M0 0 C0.99 0 1.98 0 3 0 C3 2.64 3 5.28 3 8 C5.64 7.67 8.28 7.34 11 7 C11 7.66 11 8.32 11 9 C9.56260487 9.02712066 8.12506137 9.04645067 6.6875 9.0625 C5.48673828 9.07990234 5.48673828 9.07990234 4.26171875 9.09765625 C2 9 2 9 -1 8 C-0.67 5.36 -0.34 2.72 0 0 Z " fill="#C9905A" transform="translate(299,302)"/>
<path d="M0 0 C-2.475 3.465 -2.475 3.465 -5 7 C-5.99 6.01 -6.98 5.02 -8 4 C-8 3.34 -8 2.68 -8 2 C-8.66 2 -9.32 2 -10 2 C-10 1.34 -10 0.68 -10 0 C-6.30581799 -1.231394 -3.7943739 -0.64432764 0 0 Z " fill="#CD8F54" transform="translate(284,176)"/>
<path d="M0 0 C0.99 0.66 1.98 1.32 3 2 C3.1875 4.625 3.1875 4.625 3 7 C2.34 7 1.68 7 1 7 C1 7.66 1 8.32 1 9 C-0.32 8.67 -1.64 8.34 -3 8 C-2.74438677 5.6568787 -2.40729228 3.32156597 -2 1 C-1.34 0.67 -0.68 0.34 0 0 Z " fill="#CC8239" transform="translate(240,217)"/>
<path d="M0 0 C0 3.96 0 7.92 0 12 C-0.33 12 -0.66 12 -1 12 C-1 9.69 -1 7.38 -1 5 C-1.66 5 -2.32 5 -3 5 C-3.33 7.31 -3.66 9.62 -4 12 C-4.33 12 -4.66 12 -5 12 C-5.08090971 10.37581255 -5.13914995 8.75048255 -5.1875 7.125 C-5.22230469 6.22007812 -5.25710938 5.31515625 -5.29296875 4.3828125 C-5.19628906 3.59648437 -5.09960938 2.81015625 -5 2 C-2 0 -2 0 0 0 Z " fill="#BD8B63" transform="translate(372,304)"/>
<path d="M0 0 C1.32 0.33 2.64 0.66 4 1 C3 3 2 5 1 7 C0.34 7 -0.32 7 -1 7 C-1.268125 7.61875 -1.53625 8.2375 -1.8125 8.875 C-3 11 -3 11 -6 13 C-5.67 10.69 -5.34 8.38 -5 6 C-3.35 6 -1.7 6 0 6 C0 4.02 0 2.04 0 0 Z " fill="#CE9A6C" transform="translate(292,160)"/>
<path d="M0 0 C0.33 0.99 0.66 1.98 1 3 C0.360625 3.226875 -0.27875 3.45375 -0.9375 3.6875 C-3.27193661 4.85250896 -3.27193661 4.85250896 -3.75 7.625 C-3.8325 8.40875 -3.915 9.1925 -4 10 C-4.99 10.33 -5.98 10.66 -7 11 C-8.20882096 13.00016466 -8.20882096 13.00016466 -9 15 C-9.66 15 -10.32 15 -11 15 C-9.53289058 10.15853891 -6.6487256 6.44051028 -3 3 C-2.34 3 -1.68 3 -1 3 C-0.67 2.01 -0.34 1.02 0 0 Z " fill="#D0A174" transform="translate(323,112)"/>
<path d="M0 0 C2.125 0.375 2.125 0.375 4 1 C2.88266271 2.50571657 1.75589965 4.00444292 0.625 5.5 C-0.00148438 6.3353125 -0.62796875 7.170625 -1.2734375 8.03125 C-1.84320313 8.6809375 -2.41296875 9.330625 -3 10 C-3.66 10 -4.32 10 -5 10 C-5.33 10.66 -5.66 11.32 -6 12 C-6 10.35 -6 8.7 -6 7 C-5.01 7.33 -4.02 7.66 -3 8 C-2.87625 7.05125 -2.7525 6.1025 -2.625 5.125 C-2 2 -2 2 0 0 Z " fill="#CFA074" transform="translate(351,90)"/>
<path d="M0 0 C0.66 0 1.32 0 2 0 C2.19477739 1.62414378 2.38059458 3.24936423 2.5625 4.875 C2.66691406 5.77992188 2.77132813 6.68484375 2.87890625 7.6171875 C3 10 3 10 2 12 C1.01 12 0.02 12 -1 12 C-1.02712066 10.56260487 -1.04645067 9.12506137 -1.0625 7.6875 C-1.07410156 6.88699219 -1.08570313 6.08648437 -1.09765625 5.26171875 C-1 3 -1 3 0 0 Z " fill="#986235" transform="translate(369,309)"/>
<path d="M0 0 C1.30913891 2.15622879 2 3.57952098 2 6.125 C1 8 1 8 -2.0625 9.25 C-3.031875 9.4975 -4.00125 9.745 -5 10 C-4.49701212 5.59885603 -2.91227269 3.28804981 0 0 Z " fill="#CC945B" transform="translate(268,178)"/>
<path d="M0 0 C3.96 0 7.92 0 12 0 C12 0.99 12 1.98 12 3 C8.04 3 4.08 3 0 3 C0 2.01 0 1.02 0 0 Z " fill="#9A6E4D" transform="translate(335,322)"/>
<path d="M0 0 C2 1.375 2 1.375 4 3 C4 3.66 4 4.32 4 5 C2.68 4.67 1.36 4.34 0 4 C-0.33 4.66 -0.66 5.32 -1 6 C-2.65 5.01 -4.3 4.02 -6 3 C-6 6.3 -6 9.6 -6 13 C-6.33 13 -6.66 13 -7 13 C-7 9.37 -7 5.74 -7 2 C-4.69 2 -2.38 2 0 2 C0 1.34 0 0.68 0 0 Z " fill="#BD9274" transform="translate(426,312)"/>
<path d="M0 0 C-0.66 1.32 -1.32 2.64 -2 4 C-4.16874252 3.49396008 -5.99967627 3.00016187 -8 2 C-8.33 3.32 -8.66 4.64 -9 6 C-9.66 5.34 -10.32 4.68 -11 4 C-7.76980153 -0.76838822 -5.54235553 -1.34814053 0 0 Z " fill="#CC8D55" transform="translate(378,55)"/>
<path d="M0 0 C1.32 0.33 2.64 0.66 4 1 C4 3.97 4 6.94 4 10 C3.34 9.34 2.68 8.68 2 8 C1.34 8.99 0.68 9.98 0 11 C0 7.37 0 3.74 0 0 Z " fill="#AC6B3F" transform="translate(226,302)"/>
<path d="M0 0 C1 3 1 3 1 5 C2.62553283 6.70680947 4.29115995 8.37660195 6 10 C5.01 10.99 4.02 11.98 3 13 C2.79375 12.360625 2.5875 11.72125 2.375 11.0625 C1.10461791 8.65074923 1.10461791 8.65074923 -2.125 8.25 C-3.548125 8.12625 -3.548125 8.12625 -5 8 C-4.34 6.68 -3.68 5.36 -3 4 C-2.34 4 -1.68 4 -1 4 C-0.67 2.68 -0.34 1.36 0 0 Z " fill="#D39F66" transform="translate(296,144)"/>
<path d="M0 0 C2.97 0.495 2.97 0.495 6 1 C6 1.99 6 2.98 6 4 C7.65 4 9.3 4 11 4 C9.68 5.65 8.36 7.3 7 9 C7 7.68 7 6.36 7 5 C6.01 5 5.02 5 4 5 C4 4.34 4 3.68 4 3 C2.02 3.33 0.04 3.66 -2 4 C-1.34 2.68 -0.68 1.36 0 0 Z " fill="#CF9A66" transform="translate(348,81)"/>
<path d="M0 0 C3.375 4.5 3.375 4.5 3.6875 8.75 C3.75324219 9.54921875 3.81898438 10.3484375 3.88671875 11.171875 C3.92410156 11.77515625 3.96148437 12.3784375 4 13 C2.68 13 1.36 13 0 13 C0 8.71 0 4.42 0 0 Z " fill="#B1774E" transform="translate(175,312)"/>
<path d="M0 0 C0.99 1.485 0.99 1.485 2 3 C2.66 3 3.32 3 4 3 C4 5.97 4 8.94 4 12 C3.34 11.34 2.68 10.68 2 10 C1.34 10.66 0.68 11.32 0 12 C0 8.04 0 4.08 0 0 Z " fill="#B17945" transform="translate(339,300)"/>
<path d="M0 0 C0.99 0.33 1.98 0.66 3 1 C3.40178571 9.03571429 3.40178571 9.03571429 0 13 C-0.19551338 11.39679026 -0.38111983 9.79237014 -0.5625 8.1875 C-0.71912109 6.84751953 -0.71912109 6.84751953 -0.87890625 5.48046875 C-1 3 -1 3 0 0 Z " fill="#C08246" transform="translate(311,300)"/>
<path d="M0 0 C0.66 0.33 1.32 0.66 2 1 C1.01 2.32 0.02 3.64 -1 5 C-0.01 5.33 0.98 5.66 2 6 C-0.61941217 7.74627478 -2.03824877 8.38722388 -5 9 C-5.3125 6.75 -5.3125 6.75 -5 4 C-2.5 1.6875 -2.5 1.6875 0 0 Z " fill="#C89D73" transform="translate(373,297)"/>
<path d="M0 0 C0.74609375 1.703125 0.74609375 1.703125 1 4 C-0.65234375 6.359375 -0.65234375 6.359375 -2.9375 8.75 C-4.06478516 9.94882813 -4.06478516 9.94882813 -5.21484375 11.171875 C-5.80394531 11.77515625 -6.39304687 12.3784375 -7 13 C-7.66 12.01 -8.32 11.02 -9 10 C-8.01 10 -7.02 10 -6 10 C-5.87625 9.401875 -5.7525 8.80375 -5.625 8.1875 C-5 6 -5 6 -3 3 C-2.34 3 -1.68 3 -1 3 C-0.67 2.01 -0.34 1.02 0 0 Z " fill="#D09E76" transform="translate(310,141)"/>
<path d="M0 0 C2 2 2 2 2.1953125 4.1640625 C2.17210937 4.97617188 2.14890625 5.78828125 2.125 6.625 C2.10695312 7.44226563 2.08890625 8.25953125 2.0703125 9.1015625 C2.03550781 10.04128906 2.03550781 10.04128906 2 11 C-0.90600261 12.25664978 -2.79604584 13 -6 13 C-5.071875 12.01 -5.071875 12.01 -4.125 11 C-1.50125518 7.29588966 -0.89913658 4.42075485 0 0 Z " fill="#C4946C" transform="translate(205,84)"/>
<path d="M0 0 C0.74955438 2.9982175 1.41070989 5.96936513 2 9 C-0.64 9 -3.28 9 -6 9 C-4.02 6.03 -2.04 3.06 0 0 Z " fill="#D19D6B" transform="translate(242,209)"/>
<path d="M0 0 C0.66 0 1.32 0 2 0 C2.375 2.0625 2.375 2.0625 2 5 C0.20822891 7.53572282 -1.84238121 9.77174488 -4 12 C-4.33 11.01 -4.66 10.02 -5 9 C-4.34 9 -3.68 9 -3 9 C-3.33 7.68 -3.66 6.36 -4 5 C-2.68 4.67 -1.36 4.34 0 4 C0 2.68 0 1.36 0 0 Z " fill="#CD9766" transform="translate(343,98)"/>
<path d="M0 0 C0.66 0 1.32 0 2 0 C2 0.66 2 1.32 2 2 C2.66 1.67 3.32 1.34 4 1 C6.6723621 0.86584528 9.32250488 0.95681459 12 1 C11.01 1.33 10.02 1.66 9 2 C9 2.66 9 3.32 9 4 C6.03 4 3.06 4 0 4 C0 2.68 0 1.36 0 0 Z " fill="#A96F51" transform="translate(217,297)"/>
<path d="M0 0 C2.31 0.33 4.62 0.66 7 1 C6.67 2.32 6.34 3.64 6 5 C3.69 5 1.38 5 -1 5 C-0.67 3.35 -0.34 1.7 0 0 Z " fill="#BA7634" transform="translate(345,233)"/>
<path d="M0 0 C0.598125 0.20625 1.19625 0.4125 1.8125 0.625 C0.4375 2.625 0.4375 2.625 -1.1875 4.625 C-1.8475 4.625 -2.5075 4.625 -3.1875 4.625 C-3.5175 5.945 -3.8475 7.265 -4.1875 8.625 C-4.5175 8.625 -4.8475 8.625 -5.1875 8.625 C-5.375 5.25 -5.375 5.25 -5.1875 1.625 C-2.1875 -0.375 -2.1875 -0.375 0 0 Z " fill="#CC9C6B" transform="translate(266.1875,195.375)"/>
<path d="M0 0 C2.0625 0.4375 2.0625 0.4375 4 1 C4 2.65 4 4.3 4 6 C2.35 5.67 0.7 5.34 -1 5 C-1 1 -1 1 0 0 Z " fill="#A66028" transform="translate(210,96)"/>
<path d="M0 0 C2.10478604 0.11409682 4.20884577 0.24165361 6.3125 0.375 C7.48425781 0.44460937 8.65601563 0.51421875 9.86328125 0.5859375 C13 1 13 1 16 3 C9.375 4 9.375 4 6 4 C5.67 3.34 5.34 2.68 5 2 C2.47266765 1.34444881 2.47266765 1.34444881 0 1 C0 0.67 0 0.34 0 0 Z " fill="#C89368" transform="translate(186,50)"/>
<path d="M0 0 C0.66 0 1.32 0 2 0 C2 0.66 2 1.32 2 2 C2.66 2 3.32 2 4 2 C4 2.66 4 3.32 4 4 C4.66 4 5.32 4 6 4 C6 5.65 6 7.3 6 9 C6.66 9.33 7.32 9.66 8 10 C7.01 10 6.02 10 5 10 C4.1641146 8.52227402 3.33135744 7.04277811 2.5 5.5625 C2.0359375 4.73878906 1.571875 3.91507812 1.09375 3.06640625 C0 1 0 1 0 0 Z " fill="#B98C68" transform="translate(189,120)"/>
<path d="M0 0 C1.65 0.33 3.3 0.66 5 1 C5 1.66 5 2.32 5 3 C4.34 3 3.68 3 3 3 C2.566875 4.2065625 2.566875 4.2065625 2.125 5.4375 C1 8 1 8 -1 9 C-1.33 7.68 -1.66 6.36 -2 5 C-1.34 5 -0.68 5 0 5 C0 3.35 0 1.7 0 0 Z " fill="#CB9866" transform="translate(333,109)"/>
<path d="M0 0 C4 4.75 4 4.75 4 7 C3.01 7 2.02 7 1 7 C1.66 8.32 2.32 9.64 3 11 C2.01 11.495 2.01 11.495 1 12 C0.01 10.02 -0.98 8.04 -2 6 C-1.34 5.67 -0.68 5.34 0 5 C0 3.35 0 1.7 0 0 Z " fill="#CFA17A" transform="translate(189,311)"/>
<path d="M0 0 C0.99 0 1.98 0 3 0 C3 2.97 3 5.94 3 9 C2.01 8.67 1.02 8.34 0 8 C0 5.36 0 2.72 0 0 Z " fill="#965633" transform="translate(194,297)"/>
<path d="M0 0 C0.75 1.75 0.75 1.75 1 4 C-0.75 6.25 -0.75 6.25 -3 8 C-3.99 8 -4.98 8 -6 8 C-4.55746343 4.63408134 -2.66735273 2.48952921 0 0 Z " fill="#CD9A69" transform="translate(305,134)"/>
<path d="M0 0 C1.32 0.33 2.64 0.66 4 1 C4 4.63 4 8.26 4 12 C3.67 12 3.34 12 3 12 C3 9.69 3 7.38 3 5 C2.01 5.33 1.02 5.66 0 6 C0 4.02 0 2.04 0 0 Z " fill="#C89061" transform="translate(298,313)"/>
<path d="M0 0 C2.375 0.3125 2.375 0.3125 5 1 C5.66 1.99 6.32 2.98 7 4 C6.2575 3.979375 5.515 3.95875 4.75 3.9375 C2.29537721 3.99328688 0.33890739 4.3069904 -2 5 C-2 4.34 -2 3.68 -2 3 C-1.34 2.67 -0.68 2.34 0 2 C0 1.34 0 0.68 0 0 Z " fill="#BB8864" transform="translate(425,297)"/>
<path d="M0 0 C1.32 0.33 2.64 0.66 4 1 C5.88594563 5.04131206 6.10292424 6.58830306 5 11 C3.35 7.37 1.7 3.74 0 0 Z " fill="#AB7C5A" transform="translate(201,140)"/>
<path d="M0 0 C0.99 0.33 1.98 0.66 3 1 C2.40312566 4.34249629 1.26396123 6.46436342 -1 9 C-1.66 9 -2.32 9 -3 9 C-3 8.01 -3 7.02 -3 6 C-2.34 6 -1.68 6 -1 6 C-0.67 5.01 -0.34 4.02 0 3 C-0.66 2.34 -1.32 1.68 -2 1 C-1.34 0.67 -0.68 0.34 0 0 Z " fill="#CC9C6C" transform="translate(254,206)"/>
<path d="M0 0 C1.32 0 2.64 0 4 0 C3.64950425 3.24208567 3.43778819 4.61527704 0.9375 6.8125 C0.298125 7.204375 -0.34125 7.59625 -1 8 C-1.33 7.01 -1.66 6.02 -2 5 C-1.34 5 -0.68 5 0 5 C0 3.68 0 2.36 0 1 C0 0.67 0 0.34 0 0 Z " fill="#CA9761" transform="translate(321,124)"/>
<path d="M0 0 C0.66 0.66 1.32 1.32 2 2 C1.01 2.495 1.01 2.495 0 3 C0 3.66 0 4.32 0 5 C-0.66 5 -1.32 5 -2 5 C-2 5.66 -2 6.32 -2 7 C-2.99 7.33 -3.98 7.66 -5 8 C-4.64950425 4.75791433 -4.43778819 3.38472296 -1.9375 1.1875 C-1.298125 0.795625 -0.65875 0.40375 0 0 Z " fill="#C68A55" transform="translate(355,75)"/>
<path d="M0 0 C2.875 -0.1875 2.875 -0.1875 6 0 C6.66 0.99 7.32 1.98 8 3 C7.01 3.99 6.02 4.98 5 6 C3.35 4.02 1.7 2.04 0 0 Z " fill="#CA905B" transform="translate(198,66)"/>
<path d="M0 0 C2.9375 0.8125 2.9375 0.8125 6 2 C6.33 2.99 6.66 3.98 7 5 C5.02 5 3.04 5 1 5 C0.67 3.35 0.34 1.7 0 0 Z " fill="#A17956" transform="translate(311,320)"/>
<path d="M0 0 C0.66 0 1.32 0 2 0 C2 2.31 2 4.62 2 7 C0.68 7 -0.64 7 -2 7 C-1.34 4.69 -0.68 2.38 0 0 Z " fill="#9B6639" transform="translate(299,318)"/>
<path d="M0 0 C2.61500768 2.36595933 4.38999603 4.86049226 6 8 C5.67 8.66 5.34 9.32 5 10 C4.01 9.67 3.02 9.34 2 9 C2 7.35 2 5.7 2 4 C1.34 4 0.68 4 0 4 C0 2.68 0 1.36 0 0 Z " fill="#A88566" transform="translate(216,137)"/>
<path d="M0 0 C1.32 0.33 2.64 0.66 4 1 C3.52797514 5.24822374 1.03344482 7.19989709 -2 10 C-2 8.68 -2 7.36 -2 6 C-1.01 6 -0.02 6 1 6 C0.67 4.02 0.34 2.04 0 0 Z " fill="#CD9765" transform="translate(361,75)"/>
<path d="M0 0 C0.33 1.32 0.66 2.64 1 4 C0.34 4 -0.32 4 -1 4 C-1.33 4.99 -1.66 5.98 -2 7 C-4.5625 8.1875 -4.5625 8.1875 -7 9 C-6.02180976 7.68677212 -5.0424189 6.37443848 -4.0625 5.0625 C-3.51722656 4.33160156 -2.97195313 3.60070312 -2.41015625 2.84765625 C-1 1 -1 1 0 0 Z " fill="#CDA472" transform="translate(360,67)"/>
<path d="M0 0 C1.32 0.33 2.64 0.66 4 1 C4 1.99 4 2.98 4 4 C3.34 4 2.68 4 2 4 C1.34 5.32 0.68 6.64 0 8 C0 6.68 0 5.36 0 4 C-0.66 4 -1.32 4 -2 4 C-2 3.34 -2 2.68 -2 2 C-1.34 2 -0.68 2 0 2 C0 1.34 0 0.68 0 0 Z " fill="#C39771" transform="translate(386,299)"/>
<path d="M0 0 C-0.33 0.66 -0.66 1.32 -1 2 C-1.99 1.34 -2.98 0.68 -4 0 C-4.33 0.99 -4.66 1.98 -5 3 C-6.32 2.34 -7.64 1.68 -9 1 C-8 -1 -8 -1 -6.1875 -1.75 C-3.50171361 -2.05694702 -2.2747813 -1.38111722 0 0 Z " fill="#C48E62" transform="translate(315,300)"/>
<path d="M0 0 C0.99 0 1.98 0 3 0 C3 1.32 3 2.64 3 4 C5.64 4 8.28 4 11 4 C11 4.33 11 4.66 11 5 C7.7 5 4.4 5 1 5 C0.67 3.35 0.34 1.7 0 0 Z " fill="#C67F3D" transform="translate(333,240)"/>
<path d="M0 0 C2.31 0.66 4.62 1.32 7 2 C5.71034824 3.37562854 4.37310707 4.70766393 3 6 C2.34 6 1.68 6 1 6 C0.67 4.02 0.34 2.04 0 0 Z " fill="#B1794C" transform="translate(207,100)"/>
<path d="M0 0 C2.41466913 1.20733457 4.69115369 2.60254039 7 4 C7.33 3.34 7.66 2.68 8 2 C8.33 2.99 8.66 3.98 9 5 C2.375 5.125 2.375 5.125 -1 4 C-0.67 2.68 -0.34 1.36 0 0 Z " fill="#C28247" transform="translate(346,85)"/>
<path d="M0 0 C0.99 0.33 1.98 0.66 3 1 C3 2.98 3 4.96 3 7 C2.01 7.33 1.02 7.66 0 8 C0 5.36 0 2.72 0 0 Z " fill="#A7613D" transform="translate(194,305)"/>
<path d="M0 0 C2.0625 0.4375 2.0625 0.4375 4 1 C3.67 1.99 3.34 2.98 3 4 C2.01 4 1.02 4 0 4 C-0.33 5.32 -0.66 6.64 -1 8 C-1.04241723 5.66705225 -1.04092937 3.33297433 -1 1 C-0.67 0.67 -0.34 0.34 0 0 Z " fill="#BF7335" transform="translate(299,298)"/>
<path d="M0 0 C0.99 0.33 1.98 0.66 3 1 C3.6875 3.0625 3.6875 3.0625 4 5 C3.01 5 2.02 5 1 5 C0.67 5.99 0.34 6.98 0 8 C-1.09658936 4.71023192 -0.79953138 3.28696233 0 0 Z " fill="#A26F4B" transform="translate(209,128)"/>
<path d="M0 0 C0.66 1.32 1.32 2.64 2 4 C-0.375 5.5625 -0.375 5.5625 -3 7 C-3.66 6.67 -4.32 6.34 -5 6 C-3.35 4.02 -1.7 2.04 0 0 Z " fill="#CC935F" transform="translate(311,127)"/>
<path d="M0 0 C-0.33 0.99 -0.66 1.98 -1 3 C-4.63 3 -8.26 3 -12 3 C-12 2.67 -12 2.34 -12 2 C-10.56342755 1.66269158 -9.12569907 1.33030409 -7.6875 1 C-6.88699219 0.814375 -6.08648437 0.62875 -5.26171875 0.4375 C-3 0 -3 0 0 0 Z " fill="#C79C73" transform="translate(196,99)"/>
<path d="M0 0 C3.465 1.98 3.465 1.98 7 4 C7 4.66 7 5.32 7 6 C5.35 6 3.7 6 2 6 C1.34 4.02 0.68 2.04 0 0 Z " fill="#C6986E" transform="translate(208,56)"/>
<path d="M0 0 C1.98 0.66 3.96 1.32 6 2 C5 4 5 4 3 5 C2.01 5 1.02 5 0 5 C0 3.35 0 1.7 0 0 Z " fill="#976A4E" transform="translate(426,316)"/>
<path d="M0 0 C2.125 0.375 2.125 0.375 4 1 C2.1875 3 2.1875 3 0 5 C-0.99 5 -1.98 5 -3 5 C-2 2 -2 2 0 0 Z " fill="#B57A40" transform="translate(375,297)"/>
<path d="M0 0 C0.33 0.99 0.66 1.98 1 3 C-0.4375 5.1875 -0.4375 5.1875 -2 7 C-3.32 6.67 -4.64 6.34 -6 6 C-4.02 4.02 -2.04 2.04 0 0 Z " fill="#CB996B" transform="translate(249,202)"/>
<path d="M0 0 C-0.33 0.99 -0.66 1.98 -1 3 C-1.99 3 -2.98 3 -4 3 C-4 3.99 -4 4.98 -4 6 C-4.66 6 -5.32 6 -6 6 C-6 4.35 -6 2.7 -6 1 C-4 0 -4 0 0 0 Z " fill="#A5592E" transform="translate(167,58)"/>
<path d="M0 0 C0.33 0 0.66 0 1 0 C1 2.31 1 4.62 1 7 C-0.32 7 -1.64 7 -3 7 C-3 5.35 -3 3.7 -3 2 C-2.67 2.66 -2.34 3.32 -2 4 C-1.34 4 -0.68 4 0 4 C0 2.68 0 1.36 0 0 Z " fill="#B98250" transform="translate(229,318)"/>
<path d="M0 0 C0.99 0 1.98 0 3 0 C3.33 1.65 3.66 3.3 4 5 C2.68 5 1.36 5 0 5 C0 3.35 0 1.7 0 0 Z " fill="#AC7245" transform="translate(186,311)"/>
<path d="M0 0 C1.67542976 0.28604898 3.34385343 0.61781233 5 1 C4.67 3.31 4.34 5.62 4 8 C3.731875 7.401875 3.46375 6.80375 3.1875 6.1875 C2.01506533 4.02775192 0.80630718 2.64209744 -1 1 C-0.67 0.67 -0.34 0.34 0 0 Z " fill="#985824" transform="translate(427,300)"/>
<path d="M0 0 C0.99 0 1.98 0 3 0 C3.33 1.32 3.66 2.64 4 4 C3.01 4.495 3.01 4.495 2 5 C1.34 5.99 0.68 6.98 0 8 C0 5.36 0 2.72 0 0 Z " fill="#904F2F" transform="translate(176,297)"/>
<path d="M0 0 C0.33 0 0.66 0 1 0 C1 2.64 1 5.28 1 8 C-0.32 8 -1.64 8 -3 8 C-2.67 6.68 -2.34 5.36 -2 4 C-1.67 4.33 -1.34 4.66 -1 5 C-0.67 3.35 -0.34 1.7 0 0 Z " fill="#6C452A" transform="translate(418,317)"/>
<path d="M0 0 C2.50037734 2.17424117 3.43628586 3.73045798 4 7 C2.68 6.67 1.36 6.34 0 6 C0 4.02 0 2.04 0 0 Z " fill="#B4885E" transform="translate(312,315)"/>
</svg>
